# xmcd
#
# Track frame offsets:
#	151
#	5108
#	37839
#	62929
#	94439
#	118549
#	154877
#	177269
#	208484
#
# Disc length: 3294 seconds
#
# Revision: 0
# Processed by: cddbd v1.5.1PL2 Copyright (c) Steve Scherf et al.
# Submitted via: EasyCDDAExtractor 8.2.3.1
#
DISCID=800cdc09
DTITLE=The Code Talkers with Vassar Clements - Magnoliafest - Live Oaks, FL 10
DTITLE=19-01 disc 1
DYEAR=2001
DGENRE=Country
TTITLE0=intro
TTITLE1=Beggin' You To Stay
TTITLE2=Working On A Building
TTITLE3=Grandma's Got A Motorcycle
TTITLE4=I'm So Glad
TTITLE5=I Remember
TTITLE6=No Egos Underwater
TTITLE7=Flying Saucer Lights
TTITLE8=Feel Like I'm Fixin' To Die
EXTD=
EXTT0=
EXTT1=
EXTT2=
EXTT3=
EXTT4=
EXTT5=
EXTT6=
EXTT7=
EXTT8=
PLAYORDER=
